<svg width="33" height="33" viewBox="0 0 33 33" fill="none" xmlns="http://www.w3.org/2000/svg">
<path d="M16.25 2.5C8.65588 2.5 2.5 8.65588 2.5 16.25C2.5 23.8441 8.65588 30 16.25 30C23.8441 30 30 23.8441 30 16.25C30 8.65588 23.8441 2.5 16.25 2.5ZM23.125 16.25C23.125 17.0094 22.5094 17.625 21.75 17.625H17.625V21.75C17.625 22.5094 17.0094 23.125 16.25 23.125C15.4906 23.125 14.875 22.5094 14.875 21.75V17.625H10.75C9.99061 17.625 9.375 17.0094 9.375 16.25C9.375 15.4906 9.99061 14.875 10.75 14.875H14.875V10.75C14.875 9.99061 15.4906 9.375 16.25 9.375C17.0094 9.375 17.625 9.99061 17.625 10.75V14.875H21.75C22.5094 14.875 23.125 15.4906 23.125 16.25Z" fill="white"/>
</svg>
