<svg width="25" height="24" viewBox="0 0 25 24" fill="none" xmlns="http://www.w3.org/2000/svg">
<path d="M15.74 2H11.846C10.082 2 8.684 2 7.591 2.148C6.465 2.3 5.554 2.62 4.836 3.341C4.117 4.062 3.798 4.977 3.647 6.107C3.5 7.205 3.5 8.608 3.5 10.379V16.217C3.5 17.725 4.42 19.017 5.727 19.559C5.66 18.649 5.66 17.374 5.66 16.312V11.302C5.66 10.021 5.66 8.916 5.778 8.032C5.905 7.084 6.191 6.176 6.925 5.439C7.659 4.702 8.564 4.415 9.508 4.287C10.388 4.169 11.488 4.169 12.765 4.169H15.835C17.111 4.169 18.209 4.169 19.09 4.287C18.8261 3.61329 18.3653 3.03474 17.7678 2.62678C17.1702 2.21883 16.4635 2.00041 15.74 2Z" fill="white"/>
<path d="M7.10156 11.3968C7.10156 8.67077 7.10156 7.30777 7.94556 6.46077C8.78856 5.61377 10.1456 5.61377 12.8616 5.61377H15.7416C18.4566 5.61377 19.8146 5.61377 20.6586 6.46077C21.5026 7.30777 21.5016 8.67077 21.5016 11.3968V16.2168C21.5016 18.9428 21.5016 20.3058 20.6586 21.1528C19.8146 21.9998 18.4566 21.9998 15.7416 21.9998H12.8616C10.1466 21.9998 8.78856 21.9998 7.94556 21.1528C7.10156 20.3058 7.10156 18.9428 7.10156 16.2168V11.3968Z" fill="white"/>
</svg>
