<svg width="41" height="40" viewBox="0 0 41 40" fill="none" xmlns="http://www.w3.org/2000/svg">
<path d="M12.1667 18V11.6667H8.83333V13.3333C8.83333 14.3889 9.13889 15.3406 9.75 16.1883C10.3611 17.0361 11.1667 17.64 12.1667 18ZM28.8333 18C29.8333 17.6389 30.6389 17.0344 31.25 16.1867C31.8611 15.3389 32.1667 14.3878 32.1667 13.3333V11.6667H28.8333V18ZM18.8333 31.6667V26.5C17.4722 26.1944 16.2572 25.6183 15.1883 24.7717C14.1194 23.925 13.3344 22.8622 12.8333 21.5833C10.75 21.3333 9.00722 20.4239 7.605 18.855C6.20278 17.2861 5.50111 15.4456 5.5 13.3333V11.6667C5.5 10.75 5.82667 9.96556 6.48 9.31333C7.13333 8.66111 7.91778 8.33444 8.83333 8.33333H12.1667C12.1667 7.41667 12.4933 6.63222 13.1467 5.98C13.8 5.32778 14.5844 5.00111 15.5 5H25.5C26.4167 5 27.2017 5.32667 27.855 5.98C28.5083 6.63333 28.8344 7.41778 28.8333 8.33333H32.1667C33.0833 8.33333 33.8683 8.66 34.5217 9.31333C35.175 9.96667 35.5011 10.7511 35.5 11.6667V13.3333C35.5 15.4444 34.7983 17.285 33.395 18.855C31.9917 20.425 30.2489 21.3344 28.1667 21.5833C27.6667 22.8611 26.8822 23.9239 25.8133 24.7717C24.7444 25.6194 23.5289 26.1956 22.1667 26.5V31.6667H27.1667C27.6389 31.6667 28.035 31.8267 28.355 32.1467C28.675 32.4667 28.8344 32.8622 28.8333 33.3333C28.8322 33.8044 28.6722 34.2006 28.3533 34.5217C28.0344 34.8428 27.6389 35.0022 27.1667 35H13.8333C13.3611 35 12.9656 34.84 12.6467 34.52C12.3278 34.2 12.1678 33.8044 12.1667 33.3333C12.1656 32.8622 12.3256 32.4667 12.6467 32.1467C12.9678 31.8267 13.3633 31.6667 13.8333 31.6667H18.8333Z" fill="url(#paint0_linear_1_1288)"/>
<defs>
<linearGradient id="paint0_linear_1_1288" x1="18.5875" y1="46.7885" x2="18.5875" y2="-6.68422" gradientUnits="userSpaceOnUse">
<stop stop-color="#45C6EA"/>
<stop offset="0.348" stop-color="#57CDED"/>
<stop offset="1" stop-color="#2A31B5"/>
</linearGradient>
</defs>
</svg>
