<svg width="39" height="28" viewBox="0 0 39 28" fill="none" xmlns="http://www.w3.org/2000/svg">
<path fill-rule="evenodd" clip-rule="evenodd" d="M38.1431 0.862574C38.6918 1.41442 39 2.16278 39 2.94309C39 3.7234 38.6918 4.47176 38.1431 5.0236L16.2073 27.0804C15.9175 27.3719 15.5733 27.6032 15.1945 27.761C14.8157 27.9188 14.4097 28 13.9997 28C13.5897 28 13.1837 27.9188 12.8049 27.761C12.4261 27.6032 12.082 27.3719 11.7921 27.0804L0.893454 16.1236C0.613935 15.8521 0.390981 15.5274 0.237601 15.1684C0.0842211 14.8094 0.00348725 14.4232 0.000110498 14.0325C-0.00326625 13.6418 0.0707818 13.2543 0.217934 12.8926C0.365085 12.531 0.582394 12.2024 0.85718 11.9261C1.13197 11.6498 1.45872 11.4313 1.81839 11.2833C2.17806 11.1354 2.56343 11.0609 2.95202 11.0643C3.34061 11.0677 3.72464 11.1489 4.0817 11.3031C4.43875 11.4573 4.76169 11.6815 5.03166 11.9626L13.9987 20.9791L34.003 0.862574C34.2748 0.589116 34.5975 0.372187 34.9527 0.224183C35.3079 0.0761784 35.6886 0 36.0731 0C36.4575 0 36.8383 0.0761784 37.1935 0.224183C37.5486 0.372187 37.8713 0.589116 38.1431 0.862574Z" fill="white"/>
</svg>
