<svg width="113" height="112" viewBox="0 0 113 112" fill="none" xmlns="http://www.w3.org/2000/svg">
<path d="M24.4854 81.9935C24.4854 77.2286 29.4998 68.5116 35.0274 60.871C35.4214 60.3264 36.2293 60.3264 36.6233 60.871C42.151 68.5116 47.1654 77.2286 47.1654 81.9935C47.1654 83.4827 46.872 84.9573 46.3022 86.3331C45.7323 87.709 44.897 88.9591 43.844 90.0121C42.7909 91.0651 41.5408 91.9004 40.165 92.4703C38.7892 93.0402 37.3146 93.3335 35.8254 93.3335C29.572 93.3335 24.4854 88.2468 24.4854 81.9935ZM103.165 56.0002C103.165 68.3769 98.2487 80.2468 89.497 88.9985C80.7453 97.7502 68.8755 102.667 56.4987 102.667C54.1789 102.667 51.8864 102.476 49.6432 102.131C47.7712 101.844 47.4554 99.1709 48.9222 97.9726C50.5358 96.6543 51.9489 95.0921 53.106 93.3327C55.3203 89.9656 56.4998 86.0235 56.4987 81.9935C56.4987 80.2464 56.1434 78.2732 55.4865 76.047C55.2851 75.3644 55.787 74.6668 56.4987 74.6668C59.8937 74.6668 63.0041 75.4572 65.4253 76.7895C67.8635 78.1311 71.3134 78.5188 73.2812 76.551C74.8523 74.9799 74.9933 72.4337 73.2783 71.021C69.0204 67.514 63.0775 65.3335 56.4987 65.3335C53.1691 65.3335 49.8522 63.9112 48.0646 61.1022C46.6828 58.931 45.1316 56.6547 43.3854 54.2735C42.3597 52.9273 43.1473 50.8551 44.4606 49.7876C46.088 48.4649 47.1654 46.4828 47.1654 44.3335C47.1654 40.6002 43.8987 37.3335 40.1654 37.3335C36.432 37.3335 33.1654 40.6002 33.1654 44.3335C33.1654 45.9426 33.1048 47.647 32.1618 48.9508L28.312 54.2735C21.032 64.1668 16.832 72.3335 15.572 78.4468C11.932 71.7735 9.83203 64.1202 9.83203 56.0002C9.83203 43.6234 14.7487 31.7535 23.5004 23.0018C32.2521 14.2501 44.1219 9.3335 56.4987 9.3335C62.6271 9.3335 68.6954 10.5406 74.3573 12.8858C80.0191 15.231 85.1636 18.6684 89.497 23.0018C93.8304 27.3352 97.2679 32.4797 99.6131 38.1416C101.958 43.8035 103.165 49.8718 103.165 56.0002ZM79.832 44.3335C79.832 40.6002 76.5654 37.3335 72.832 37.3335C69.0987 37.3335 65.832 40.6002 65.832 44.3335C65.832 48.0668 69.0987 51.3335 72.832 51.3335C76.5654 51.3335 79.832 48.0668 79.832 44.3335Z" fill="url(#paint0_linear_1_768)"/>
<defs>
<linearGradient id="paint0_linear_1_768" x1="9.99872" y1="56.0002" x2="102.999" y2="56.0002" gradientUnits="userSpaceOnUse">
<stop stop-color="#01D9FF"/>
<stop offset="1" stop-color="#0051FF"/>
</linearGradient>
</defs>
</svg>
