<svg width="24" height="25" viewBox="0 0 24 25" fill="none" xmlns="http://www.w3.org/2000/svg">
<path fill-rule="evenodd" clip-rule="evenodd" d="M20.2897 9.0671C20.4227 9.3901 20.6237 9.6801 20.8797 9.9171V9.9191C21.2335 10.2499 21.5156 10.6499 21.7085 11.0942C21.9014 11.5385 22.0009 12.0177 22.0009 12.5021C22.0009 12.9865 21.9014 13.4657 21.7085 13.91C21.5156 14.3543 21.2335 14.7543 20.8797 15.0851C20.6243 15.3229 20.4229 15.6127 20.289 15.9349C20.1552 16.2571 20.092 16.6044 20.1037 16.9531C20.1203 17.4371 20.0372 17.9194 19.8596 18.37C19.682 18.8205 19.4137 19.2298 19.0714 19.5723C18.729 19.9149 18.3199 20.1834 17.8694 20.3612C17.419 20.5391 16.9367 20.6224 16.4527 20.6061C16.104 20.5966 15.7571 20.6609 15.4349 20.7946C15.1127 20.9283 14.8223 21.1285 14.5827 21.3821C14.2519 21.7355 13.852 22.0172 13.4079 22.2098C12.9637 22.4024 12.4848 22.5017 12.0007 22.5017C11.5166 22.5017 11.0377 22.4024 10.5936 22.2098C10.1494 22.0172 9.74956 21.7355 9.4187 21.3821C9.18071 21.1264 8.8906 20.9249 8.56799 20.791C8.24538 20.6571 7.89778 20.5941 7.54871 20.6061C7.06438 20.6229 6.5818 20.5398 6.13095 20.3621C5.6801 20.1844 5.27063 19.9158 4.92801 19.5731C4.58539 19.2304 4.31693 18.8208 4.13934 18.3699C3.96175 17.919 3.87882 17.4364 3.89571 16.9521C3.90758 16.6034 3.84454 16.2563 3.71085 15.934C3.57716 15.6118 3.37592 15.322 3.12071 15.0841C2.76701 14.7532 2.48503 14.3532 2.29225 13.9089C2.09947 13.4646 2 12.9854 2 12.5011C2 12.0168 2.09947 11.5376 2.29225 11.0933C2.48503 10.649 2.76701 10.249 3.12071 9.9181C3.37618 9.68001 3.57757 9.38986 3.71127 9.06726C3.84497 8.74465 3.90787 8.3971 3.89571 8.0481C3.88006 7.56402 3.96363 7.08186 4.14128 6.63128C4.31893 6.1807 4.5869 5.77125 4.92871 5.4281C5.27366 5.08885 5.68346 4.82262 6.13362 4.6453C6.58377 4.46799 7.06506 4.38323 7.54871 4.3961C7.89804 4.41094 8.2464 4.34926 8.56941 4.21539C8.89242 4.08153 9.18228 3.8787 9.4187 3.6211C9.74941 3.26729 10.1493 2.98522 10.5935 2.79236C11.0378 2.59951 11.5169 2.5 12.0012 2.5C12.4855 2.5 12.9646 2.59951 13.4089 2.79236C13.8531 2.98522 14.253 3.26729 14.5837 3.6211C14.8217 3.87644 15.1117 4.07776 15.4341 4.21146C15.7565 4.34515 16.1039 4.40812 16.4527 4.3961C16.9369 4.37905 17.4194 4.46186 17.8702 4.63936C18.321 4.81686 18.7304 5.08525 19.073 5.42783C19.4156 5.7704 19.6839 6.17983 19.8614 6.63063C20.0389 7.08142 20.1217 7.56392 20.1047 8.0481C20.0927 8.3981 20.1557 8.7451 20.2887 9.0681L20.2897 9.0671ZM9.92671 7.8711C9.66149 7.8711 9.40714 7.97646 9.2196 8.16399C9.03206 8.35153 8.92671 8.60588 8.92671 8.8711C8.92671 9.13632 9.03206 9.39067 9.2196 9.57821C9.40714 9.76574 9.66149 9.8711 9.92671 9.8711H9.93671C10.2019 9.8711 10.4563 9.76574 10.6438 9.57821C10.8313 9.39067 10.9367 9.13632 10.9367 8.8711C10.9367 8.60588 10.8313 8.35153 10.6438 8.16399C10.4563 7.97646 10.2019 7.8711 9.93671 7.8711H9.92671ZM15.8157 10.0971C16.0033 9.90959 16.1088 9.65522 16.1089 9.38995C16.109 9.12468 16.0037 8.87024 15.8162 8.6826C15.6287 8.49496 15.3743 8.38949 15.1091 8.3894C14.8438 8.3893 14.5893 8.49459 14.4017 8.6821L8.18371 14.9001C8.00155 15.0887 7.90075 15.3413 7.90303 15.6035C7.90531 15.8657 8.01048 16.1165 8.19589 16.3019C8.38129 16.4873 8.63211 16.5925 8.8943 16.5948C9.1565 16.5971 9.4091 16.4963 9.5977 16.3141L15.8157 10.0971ZM13.0257 15.1251C12.7605 15.1251 12.5061 15.2305 12.3186 15.418C12.1311 15.6055 12.0257 15.8599 12.0257 16.1251C12.0257 16.3903 12.1311 16.6447 12.3186 16.8322C12.5061 17.0197 12.7605 17.1251 13.0257 17.1251H13.0357C13.3009 17.1251 13.5553 17.0197 13.7428 16.8322C13.9303 16.6447 14.0357 16.3903 14.0357 16.1251C14.0357 15.8599 13.9303 15.6055 13.7428 15.418C13.5553 15.2305 13.3009 15.1251 13.0357 15.1251H13.0257Z" fill="#01ACFF"/>
</svg>
