<svg width="31" height="35" viewBox="0 0 31 35" fill="none" xmlns="http://www.w3.org/2000/svg">
<path d="M29.1667 18.3335V28.7502C29.1668 30.1337 28.6374 31.4649 27.6872 32.4705C26.737 33.4762 25.438 34.0802 24.0567 34.1585L23.75 34.1668H7.91667C6.5331 34.1669 5.20195 33.6376 4.19628 32.6874C3.19061 31.7372 2.58666 30.4382 2.50833 29.0568L2.5 28.7502V18.3335H29.1667Z" fill="url(#paint0_linear_1_1085)"/>
<path d="M28.7487 9.16699C29.8987 9.16699 30.832 10.1003 30.832 11.2503V17.0837C30.8321 17.5639 30.6663 18.0295 30.3626 18.4015C30.0589 18.7736 29.6359 19.0293 29.1654 19.1253H2.4987C1.5487 18.932 0.832031 18.092 0.832031 17.0837V11.2503C0.832031 10.1003 1.76536 9.16699 2.91536 9.16699H28.7487Z" fill="url(#paint1_linear_1_1085)"/>
<path d="M14.582 34.1667V17.5H17.082V34.1667H14.582Z" fill="white"/>
<path d="M14.582 19.1668V10.8335H17.082V19.1668H14.582Z" fill="white"/>
<path fill-rule="evenodd" clip-rule="evenodd" d="M11.6662 11.6668C10.7543 11.6668 9.85724 11.4365 9.05808 10.9973C8.25892 10.5582 7.58356 9.9244 7.09459 9.15471C6.60563 8.38503 6.31889 7.50436 6.26095 6.59434C6.20301 5.68431 6.37574 4.77439 6.76315 3.94891C7.15055 3.12343 7.74008 2.40911 8.4771 1.87216C9.21411 1.33521 10.0748 0.993019 10.9792 0.877295C11.8837 0.761571 12.8028 0.876063 13.6513 1.21016C14.4997 1.54426 15.2501 2.08714 15.8329 2.7885C16.4156 2.08714 17.166 1.54426 18.0145 1.21016C18.8629 0.876063 19.782 0.761571 20.6865 0.877295C21.591 0.993019 22.4516 1.33521 23.1886 1.87216C23.9256 2.40911 24.5152 3.12343 24.9026 3.94891C25.29 4.77439 25.4627 5.68431 25.4048 6.59434C25.3468 7.50436 25.0601 8.38503 24.5711 9.15471C24.0822 9.9244 23.4068 10.5582 22.6076 10.9973C21.8085 11.4365 20.9114 11.6668 19.9995 11.6668H11.6662ZM8.74952 6.25016C8.74952 5.47662 9.05681 4.73475 9.6038 4.18777C10.1508 3.64079 10.8926 3.3335 11.6662 3.3335C12.4397 3.3335 13.1816 3.64079 13.7286 4.18777C14.2756 4.73475 14.5829 5.47662 14.5829 6.25016V9.16683H11.6662C10.8926 9.16683 10.1508 8.85954 9.6038 8.31256C9.05681 7.76558 8.74952 7.02371 8.74952 6.25016ZM17.0829 9.16683H19.9995C20.5764 9.16683 21.1403 8.99577 21.6199 8.67528C22.0996 8.3548 22.4734 7.89928 22.6942 7.36632C22.9149 6.83337 22.9727 6.24693 22.8601 5.68115C22.7476 5.11537 22.4698 4.59567 22.0619 4.18777C21.654 3.77987 21.1343 3.50208 20.5685 3.38954C20.0028 3.277 19.4163 3.33476 18.8834 3.55552C18.3504 3.77627 17.8949 4.15011 17.5744 4.62975C17.2539 5.10939 17.0829 5.6733 17.0829 6.25016V9.16683Z" fill="black"/>
<path fill-rule="evenodd" clip-rule="evenodd" d="M11.6662 11.6668C10.7543 11.6668 9.85724 11.4365 9.05808 10.9973C8.25892 10.5582 7.58356 9.9244 7.09459 9.15471C6.60563 8.38503 6.31889 7.50436 6.26095 6.59434C6.20301 5.68431 6.37574 4.77439 6.76315 3.94891C7.15055 3.12343 7.74008 2.40911 8.4771 1.87216C9.21411 1.33521 10.0748 0.993019 10.9792 0.877295C11.8837 0.761571 12.8028 0.876063 13.6513 1.21016C14.4997 1.54426 15.2501 2.08714 15.8329 2.7885C16.4156 2.08714 17.166 1.54426 18.0145 1.21016C18.8629 0.876063 19.782 0.761571 20.6865 0.877295C21.591 0.993019 22.4516 1.33521 23.1886 1.87216C23.9256 2.40911 24.5152 3.12343 24.9026 3.94891C25.29 4.77439 25.4627 5.68431 25.4048 6.59434C25.3468 7.50436 25.0601 8.38503 24.5711 9.15471C24.0822 9.9244 23.4068 10.5582 22.6076 10.9973C21.8085 11.4365 20.9114 11.6668 19.9995 11.6668H11.6662ZM8.74952 6.25016C8.74952 5.47662 9.05681 4.73475 9.6038 4.18777C10.1508 3.64079 10.8926 3.3335 11.6662 3.3335C12.4397 3.3335 13.1816 3.64079 13.7286 4.18777C14.2756 4.73475 14.5829 5.47662 14.5829 6.25016V9.16683H11.6662C10.8926 9.16683 10.1508 8.85954 9.6038 8.31256C9.05681 7.76558 8.74952 7.02371 8.74952 6.25016ZM17.0829 9.16683H19.9995C20.5764 9.16683 21.1403 8.99577 21.6199 8.67528C22.0996 8.3548 22.4734 7.89928 22.6942 7.36632C22.9149 6.83337 22.9727 6.24693 22.8601 5.68115C22.7476 5.11537 22.4698 4.59567 22.0619 4.18777C21.654 3.77987 21.1343 3.50208 20.5685 3.38954C20.0028 3.277 19.4163 3.33476 18.8834 3.55552C18.3504 3.77627 17.8949 4.15011 17.5744 4.62975C17.2539 5.10939 17.0829 5.6733 17.0829 6.25016V9.16683Z" fill="white"/>
<defs>
<linearGradient id="paint0_linear_1_1085" x1="14.1333" y1="40.3885" x2="14.1333" y2="12.1668" gradientUnits="userSpaceOnUse">
<stop stop-color="#45C6EA"/>
<stop offset="0.348" stop-color="#57CDED"/>
<stop offset="1" stop-color="#2A31B5"/>
</linearGradient>
<linearGradient id="paint1_linear_1_1085" x1="13.9195" y1="23.0384" x2="13.9195" y2="5.28848" gradientUnits="userSpaceOnUse">
<stop stop-color="#45C6EA"/>
<stop offset="0.348" stop-color="#57CDED"/>
<stop offset="1" stop-color="#2A31B5"/>
</linearGradient>
</defs>
</svg>
