<svg width="41" height="40" viewBox="0 0 41 40" fill="none" xmlns="http://www.w3.org/2000/svg">
<path d="M21.5 12.5005H19V20.0005H9C8.33696 20.0005 7.70107 19.7371 7.23223 19.2683C6.76339 18.7994 6.5 18.1635 6.5 17.5005V15.0005C6.5 14.3375 6.76339 13.7016 7.23223 13.2327C7.70107 12.7639 8.33696 12.5005 9 12.5005H12.17C11.5498 11.4266 11.3509 10.1606 11.6117 8.94821C11.8726 7.73586 12.5747 6.6637 13.5817 5.93994C14.5886 5.21617 15.8287 4.89243 17.0609 5.03159C18.2932 5.17076 19.4298 5.76288 20.25 6.693C21.0702 5.76288 22.2068 5.17076 23.4391 5.03159C24.6713 4.89243 25.9113 5.21617 26.9183 5.93994C27.9253 6.6637 28.6274 7.73586 28.8883 8.94821C29.1491 10.1606 28.9502 11.4266 28.33 12.5005H31.5C32.163 12.5005 32.7989 12.7639 33.2678 13.2327C33.7366 13.7016 34 14.3375 34 15.0005V17.5005C34 18.1635 33.7366 18.7994 33.2678 19.2683C32.7989 19.7371 32.163 20.0005 31.5 20.0005H21.5V12.5005ZM14 10.0005C14 10.6635 14.2634 11.2994 14.7322 11.7683C15.2011 12.2371 15.837 12.5005 16.5 12.5005H19V10.0005C19 9.33745 18.7366 8.70157 18.2678 8.23273C17.7989 7.76389 17.163 7.5005 16.5 7.5005C15.837 7.5005 15.2011 7.76389 14.7322 8.23273C14.2634 8.70157 14 9.33745 14 10.0005ZM21.5 12.5005H24C24.4945 12.5005 24.9778 12.3539 25.3889 12.0792C25.8 11.8045 26.1205 11.414 26.3097 10.9572C26.4989 10.5004 26.5484 9.99772 26.452 9.51277C26.3555 9.02782 26.1174 8.58236 25.7678 8.23273C25.4181 7.8831 24.9727 7.645 24.4877 7.54853C24.0028 7.45207 23.5001 7.50158 23.0433 7.6908C22.5865 7.88002 22.196 8.20045 21.9213 8.61157C21.6466 9.02269 21.5 9.50604 21.5 10.0005V12.5005ZM31.5 22.5005H21.5V35.0005H26.5C27.8261 35.0005 29.0979 34.4737 30.0355 33.536C30.9732 32.5983 31.5 31.3266 31.5 30.0005V22.5005ZM19 35.0005V22.5005H9V30.0005C9 31.3266 9.52678 32.5983 10.4645 33.536C11.4021 34.4737 12.6739 35.0005 14 35.0005H19Z" fill="url(#paint0_linear_1_1297)"/>
<defs>
<linearGradient id="paint0_linear_1_1297" x1="18.4969" y1="46.7891" x2="18.4969" y2="-6.6844" gradientUnits="userSpaceOnUse">
<stop stop-color="#45C6EA"/>
<stop offset="0.348" stop-color="#57CDED"/>
<stop offset="1" stop-color="#2A31B5"/>
</linearGradient>
</defs>
</svg>
