<svg width="30" height="31" viewBox="0 0 30 31" fill="none" xmlns="http://www.w3.org/2000/svg">
<path d="M13.5328 28C12.9703 28 12.4861 27.8125 12.0803 27.4375C11.6745 27.0625 11.4295 26.6042 11.3453 26.0625L11.0641 24C10.7932 23.8958 10.5382 23.7708 10.2991 23.625C10.0599 23.4792 9.82531 23.3229 9.59531 23.1563L7.65781 23.9688C7.13698 24.1979 6.61615 24.2188 6.09531 24.0313C5.57448 23.8438 5.16823 23.5104 4.87656 23.0313L3.40781 20.4688C3.11615 19.9896 3.03281 19.4792 3.15781 18.9375C3.28281 18.3958 3.56406 17.9479 4.00156 17.5938L5.65781 16.3438C5.63698 16.1979 5.62656 16.0571 5.62656 15.9213V15.0775C5.62656 14.9425 5.63698 14.8021 5.65781 14.6563L4.00156 13.4063C3.56406 13.0521 3.28281 12.6042 3.15781 12.0625C3.03281 11.5208 3.11615 11.0104 3.40781 10.5313L4.87656 7.96875C5.16823 7.48958 5.57448 7.15625 6.09531 6.96875C6.61615 6.78125 7.13698 6.80208 7.65781 7.03125L9.59531 7.84375C9.82448 7.67708 10.0641 7.52083 10.3141 7.375C10.5641 7.22917 10.8141 7.10417 11.0641 7L11.3453 4.9375C11.4286 4.39583 11.6736 3.9375 12.0803 3.5625C12.487 3.1875 12.9711 3 13.5328 3H16.4703C17.0328 3 17.5174 3.1875 17.9241 3.5625C18.3307 3.9375 18.5753 4.39583 18.6578 4.9375L18.9391 7C19.2099 7.10417 19.4653 7.22917 19.7053 7.375C19.9453 7.52083 20.1795 7.67708 20.4078 7.84375L22.3453 7.03125C22.8661 6.80208 23.387 6.78125 23.9078 6.96875C24.4286 7.15625 24.8349 7.48958 25.1266 7.96875L26.5953 10.5313C26.887 11.0104 26.9703 11.5208 26.8453 12.0625C26.7203 12.6042 26.4391 13.0521 26.0016 13.4063L24.3453 14.6563C24.3662 14.8021 24.3766 14.9429 24.3766 15.0788V15.9213C24.3766 16.0571 24.3557 16.1979 24.3141 16.3438L25.9703 17.5938C26.4078 17.9479 26.6891 18.3958 26.8141 18.9375C26.9391 19.4792 26.8557 19.9896 26.5641 20.4688L25.0641 23.0313C24.7724 23.5104 24.3662 23.8438 23.8453 24.0313C23.3245 24.2188 22.8036 24.1979 22.2828 23.9688L20.4078 23.1563C20.1786 23.3229 19.9391 23.4792 19.6891 23.625C19.4391 23.7708 19.1891 23.8958 18.9391 24L18.6578 26.0625C18.5745 26.6042 18.3299 27.0625 17.9241 27.4375C17.5182 27.8125 17.0336 28 16.4703 28H13.5328ZM15.0641 19.875C16.2724 19.875 17.3036 19.4479 18.1578 18.5938C19.012 17.7396 19.4391 16.7083 19.4391 15.5C19.4391 14.2917 19.012 13.2604 18.1578 12.4062C17.3036 11.5521 16.2724 11.125 15.0641 11.125C13.8349 11.125 12.7982 11.5521 11.9541 12.4062C11.1099 13.2604 10.6882 14.2917 10.6891 15.5C10.6899 16.7083 11.112 17.7396 11.9553 18.5938C12.7986 19.4479 13.8349 19.875 15.0641 19.875Z" fill="white"/>
</svg>
