<svg width="30" height="31" viewBox="0 0 30 31" fill="none" xmlns="http://www.w3.org/2000/svg">
<path d="M27.9989 15.9781V16.0021C27.9989 22.9058 22.4026 28.502 15.4989 28.502C12.6336 28.5063 9.85451 27.5221 7.63059 25.7154L7.6535 25.7341C7.5216 25.6274 7.41364 25.4942 7.33664 25.343C7.25963 25.1919 7.21532 25.0262 7.20657 24.8568C7.19783 24.6874 7.22485 24.518 7.28588 24.3598C7.3469 24.2015 7.44057 24.0578 7.56079 23.9381L8.12854 23.3704C8.33777 23.1585 8.61785 23.0313 8.91508 23.0132C9.21231 22.9952 9.50574 23.0875 9.73909 23.2725L9.73701 23.2704C11.3741 24.5731 13.4057 25.2803 15.4979 25.2757C17.0113 25.2757 18.5016 24.9054 19.839 24.1971C21.1763 23.4887 22.32 22.4639 23.1703 21.212C24.0206 19.9601 24.5516 18.5191 24.717 17.0148C24.8824 15.5105 24.6772 13.9886 24.1193 12.5818C23.5614 11.175 22.6677 9.92617 21.5162 8.94415C20.3648 7.96213 18.9905 7.27679 17.5133 6.94794C16.0361 6.61908 14.5008 6.6567 13.0415 7.0575C11.5822 7.4583 10.2431 8.21012 9.14113 9.24735L9.14633 9.24319L11.7049 11.8017C11.8176 11.9146 11.8943 12.0583 11.9253 12.2147C11.9563 12.3711 11.9403 12.5332 11.8792 12.6805C11.8181 12.8278 11.7147 12.9537 11.582 13.0422C11.4494 13.1308 11.2935 13.178 11.134 13.1779H3.80632C3.59247 13.1779 3.38738 13.0929 3.23616 12.9417C3.08495 12.7905 3 12.5854 3 12.3716V5.04389C3.00041 4.88464 3.04791 4.72906 3.13652 4.59674C3.22513 4.46442 3.3509 4.36126 3.498 4.30024C3.64509 4.23922 3.80695 4.22306 3.96321 4.2538C4.11946 4.28455 4.26314 4.36081 4.37615 4.47301L6.8649 6.96175C9.18833 4.73621 12.2826 3.49573 15.5 3.50001C22.3953 3.50001 27.9875 9.0838 28 15.976V15.9771L27.9989 15.9781ZM18.8805 19.9482L19.3753 19.3117C19.5723 19.0589 19.6608 18.7382 19.6213 18.4201C19.5819 18.1021 19.4177 17.8127 19.1649 17.6157L19.1617 17.6137L17.1105 16.0177V10.7589C17.1105 10.0912 16.5688 9.54842 15.9 9.54842H15.0937C14.4259 9.54842 13.8832 10.0901 13.8832 10.7589V17.5928L17.1803 20.1566C17.3052 20.2547 17.4483 20.3273 17.6013 20.3701C17.7543 20.4129 17.9142 20.4251 18.0719 20.4061C18.2296 20.387 18.382 20.337 18.5204 20.259C18.6588 20.181 18.7804 20.0764 18.8784 19.9513L18.8805 19.9482Z" fill="white"/>
</svg>
