<svg width="33" height="32" viewBox="0 0 33 32" fill="none" xmlns="http://www.w3.org/2000/svg">
<path d="M16.1667 25.3332H15.8333C12.6778 25.3332 10 24.2332 7.8 22.0332C5.6 19.8332 4.5 17.1554 4.5 13.9998C4.5 10.8443 5.6 8.1665 7.8 5.9665C10 3.7665 12.6778 2.6665 15.8333 2.6665C17.4111 2.6665 18.8836 2.96073 20.2507 3.54917C21.6178 4.13761 22.8178 4.94873 23.8507 5.9825C24.8836 7.01628 25.6942 8.21628 26.2827 9.5825C26.8711 10.9487 27.1658 12.4212 27.1667 13.9998C27.1667 16.9776 26.3276 19.7443 24.6493 22.2998C22.9711 24.8554 20.8547 26.8554 18.3 28.2998C18.0778 28.4109 17.8556 28.4723 17.6333 28.4838C17.4111 28.4954 17.2111 28.4452 17.0333 28.3332C16.8556 28.2212 16.7 28.0767 16.5667 27.8998C16.4333 27.7229 16.3556 27.5118 16.3333 27.2665L16.1667 25.3332ZM15.8 21.2998C16.1778 21.2998 16.5 21.1665 16.7667 20.8998C17.0333 20.6332 17.1667 20.3109 17.1667 19.9332C17.1667 19.5554 17.0333 19.2332 16.7667 18.9665C16.5 18.6998 16.1778 18.5665 15.8 18.5665C15.4222 18.5665 15.1 18.6998 14.8333 18.9665C14.5667 19.2332 14.4333 19.5554 14.4333 19.9332C14.4333 20.3109 14.5667 20.6332 14.8333 20.8998C15.1 21.1665 15.4222 21.2998 15.8 21.2998ZM12.9 11.1665C13.1444 11.2776 13.3889 11.2834 13.6333 11.1838C13.8778 11.0843 14.0778 10.9229 14.2333 10.6998C14.4333 10.4332 14.6667 10.2274 14.9333 10.0825C15.2 9.93761 15.5 9.86562 15.8333 9.8665C16.3667 9.8665 16.8 10.0163 17.1333 10.3158C17.4667 10.6154 17.6333 10.9989 17.6333 11.4665C17.6333 11.7554 17.5502 12.0443 17.384 12.3332C17.2178 12.6221 16.9231 12.9776 16.5 13.3998C15.9444 13.8887 15.5333 14.3501 15.2667 14.7838C15 15.2176 14.8667 15.6563 14.8667 16.0998C14.8667 16.3665 14.9613 16.5945 15.1507 16.7838C15.34 16.9732 15.5676 17.0674 15.8333 17.0665C16.0991 17.0656 16.3213 16.9656 16.5 16.7665C16.6787 16.5674 16.812 16.3341 16.9 16.0665C17.0111 15.6887 17.2111 15.3443 17.5 15.0332C17.7889 14.7221 18.0556 14.4443 18.3 14.1998C18.7667 13.7332 19.1169 13.2665 19.3507 12.7998C19.5844 12.3332 19.7009 11.8665 19.7 11.3998C19.7 10.3776 19.3498 9.55539 18.6493 8.93317C17.9489 8.31095 17.0102 7.99984 15.8333 7.99984C15.1222 7.99984 14.4667 8.17228 13.8667 8.51717C13.2667 8.86206 12.7778 9.33406 12.4 9.93317C12.2667 10.1776 12.2498 10.4167 12.3493 10.6505C12.4489 10.8843 12.6324 11.0563 12.9 11.1665Z" fill="white"/>
</svg>
