<svg width="40" height="40" viewBox="0 0 40 40" fill="none" xmlns="http://www.w3.org/2000/svg">
<path d="M34.435 12.0335L21.3584 32.8568C21.1984 33.109 20.9771 33.3165 20.7152 33.46C20.4533 33.6034 20.1592 33.6782 19.8606 33.6772C19.562 33.6762 19.2684 33.5995 19.0075 33.4543C18.7465 33.309 18.5266 33.1001 18.3684 32.8468L5.54669 12.0235C5.18682 11.4406 4.99745 10.7685 5.00003 10.0835C5.01538 9.07148 5.43206 8.10703 6.15843 7.40223C6.8848 6.69742 7.86137 6.30999 8.87336 6.32513H31.1434C33.2717 6.32347 35 8.00014 35 10.0735C35 10.7618 34.8067 11.4418 34.435 12.0335ZM8.69669 11.3335L18.235 26.0435V9.85347H9.69336C8.70669 9.85347 8.26503 10.5068 8.69669 11.3368M21.7634 26.0468L31.305 11.3335C31.7467 10.5051 31.295 9.85013 30.3067 9.85013H21.7667L21.7634 26.0468Z" fill="url(#paint0_linear_1_1280)"/>
<defs>
<linearGradient id="paint0_linear_1_1280" x1="18.0875" y1="44.4252" x2="18.0875" y2="-4.32836" gradientUnits="userSpaceOnUse">
<stop stop-color="#45C6EA"/>
<stop offset="0.348" stop-color="#57CDED"/>
<stop offset="1" stop-color="#2A31B5"/>
</linearGradient>
</defs>
</svg>
