<svg width="24" height="25" viewBox="0 0 24 25" fill="none" xmlns="http://www.w3.org/2000/svg">
<path d="M20.661 7.72018L12.815 20.2142C12.719 20.3655 12.5863 20.49 12.4291 20.5761C12.272 20.6622 12.0955 20.707 11.9164 20.7064C11.7372 20.7058 11.5611 20.6598 11.4045 20.5727C11.2479 20.4855 11.116 20.3601 11.021 20.2082L3.32802 7.71418C3.11209 7.36444 2.99847 6.9612 3.00002 6.55018C3.00923 5.94299 3.25924 5.36431 3.69506 4.94143C4.13088 4.51855 4.71682 4.28609 5.32402 4.29518H18.686C19.963 4.29418 21 5.30018 21 6.54418C21 6.95718 20.884 7.36518 20.661 7.72018ZM5.21802 7.30018L10.941 16.1262V6.41218H5.81602C5.22402 6.41218 4.95902 6.80418 5.21802 7.30218M13.058 16.1282L18.783 7.30018C19.048 6.80318 18.777 6.41018 18.184 6.41018H13.06L13.058 16.1282Z" fill="white"/>
</svg>
