<svg width="25" height="31" viewBox="0 0 25 31" fill="none" xmlns="http://www.w3.org/2000/svg">
<path d="M11.125 9.8751V18.1251C11.1254 18.4756 11.2596 18.8126 11.5002 19.0675C11.7407 19.3223 12.0696 19.4757 12.4194 19.4962C12.7693 19.5167 13.1138 19.4029 13.3825 19.178C13.6513 18.953 13.824 18.634 13.8654 18.286L13.875 18.1251V9.8751H22.125C22.8188 9.87488 23.487 10.1369 23.9958 10.6087C24.5045 11.0804 24.8161 11.727 24.8681 12.4188L24.875 12.6251V25.0001C24.8752 25.6939 24.6132 26.3621 24.1414 26.8709C23.6697 27.3796 23.0231 27.6912 22.3312 27.7432L22.125 27.7501H2.875C2.18121 27.7503 1.51297 27.4883 1.00425 27.0165C0.495522 26.5448 0.18391 25.8982 0.131875 25.2063L0.125 25.0001V12.6251C0.124781 11.9313 0.386809 11.2631 0.858558 10.7543C1.33031 10.2456 1.97691 9.93401 2.66875 9.88197L2.875 9.8751H11.125ZM13.7155 0.894973L18.3341 5.51222C18.5921 5.77023 18.7371 6.12016 18.7371 6.48504C18.7371 6.84991 18.5921 7.19984 18.3341 7.45785C18.0761 7.71585 17.7262 7.8608 17.3613 7.8608C16.9964 7.8608 16.6465 7.71585 16.3885 7.45785L13.875 4.94297V9.8751H11.125V4.94297L8.6115 7.45785C8.48375 7.5856 8.33208 7.68694 8.16517 7.75608C7.99825 7.82521 7.81936 7.8608 7.63869 7.8608C7.45802 7.8608 7.27912 7.82521 7.11221 7.75608C6.94529 7.68694 6.79363 7.5856 6.66587 7.45785C6.53812 7.3301 6.43679 7.17843 6.36765 7.01152C6.29851 6.8446 6.26292 6.6657 6.26292 6.48504C6.26292 6.30437 6.29851 6.12547 6.36765 5.95855C6.43679 5.79164 6.53812 5.63998 6.66587 5.51222L11.2859 0.894973C11.6082 0.572968 12.0451 0.39209 12.5007 0.39209C12.9563 0.39209 13.3932 0.572968 13.7155 0.894973Z" fill="white"/>
</svg>
