<svg width="20" height="21" viewBox="0 0 20 21" fill="none" xmlns="http://www.w3.org/2000/svg">
<path d="M5.83333 9.5V6.33333H4.16667V7.16667C4.16667 7.69444 4.31944 8.17028 4.625 8.59417C4.93056 9.01806 5.33333 9.32 5.83333 9.5ZM14.1667 9.5C14.6667 9.31945 15.0694 9.01722 15.375 8.59333C15.6806 8.16944 15.8333 7.69389 15.8333 7.16667V6.33333H14.1667V9.5ZM9.16667 16.3333V13.75C8.48611 13.5972 7.87861 13.3092 7.34417 12.8858C6.80972 12.4625 6.41722 11.9311 6.16667 11.2917C5.125 11.1667 4.25361 10.7119 3.5525 9.9275C2.85139 9.14306 2.50056 8.22278 2.5 7.16667V6.33333C2.5 5.875 2.66333 5.48278 2.99 5.15667C3.31667 4.83056 3.70889 4.66722 4.16667 4.66667H5.83333C5.83333 4.20833 5.99667 3.81611 6.32333 3.49C6.65 3.16389 7.04222 3.00056 7.5 3H12.5C12.9583 3 13.3508 3.16333 13.6775 3.49C14.0042 3.81667 14.1672 4.20889 14.1667 4.66667H15.8333C16.2917 4.66667 16.6842 4.83 17.0108 5.15667C17.3375 5.48333 17.5006 5.87556 17.5 6.33333V7.16667C17.5 8.22222 17.1492 9.1425 16.4475 9.9275C15.7458 10.7125 14.8744 11.1672 13.8333 11.2917C13.5833 11.9306 13.1911 12.4619 12.6567 12.8858C12.1222 13.3097 11.5144 13.5978 10.8333 13.75V16.3333H13.3333C13.5694 16.3333 13.7675 16.4133 13.9275 16.5733C14.0875 16.7333 14.1672 16.9311 14.1667 17.1667C14.1661 17.4022 14.0861 17.6003 13.9267 17.7608C13.7672 17.9214 13.5694 18.0011 13.3333 18H6.66667C6.43056 18 6.23278 17.92 6.07333 17.76C5.91389 17.6 5.83389 17.4022 5.83333 17.1667C5.83278 16.9311 5.91278 16.7333 6.07333 16.5733C6.23389 16.4133 6.43167 16.3333 6.66667 16.3333H9.16667Z" fill="white"/>
</svg>
